<?xml version="1.0" encoding="UTF-8" standalone="no"?>
<!-- Created with Inkscape (http://www.inkscape.org/) -->

<svg
   xmlns:dc="http://purl.org/dc/elements/1.1/"
   xmlns:cc="http://creativecommons.org/ns#"
   xmlns:rdf="http://www.w3.org/1999/02/22-rdf-syntax-ns#"
   xmlns:svg="http://www.w3.org/2000/svg"
   xmlns="http://www.w3.org/2000/svg"
   xmlns:sodipodi="http://sodipodi.sourceforge.net/DTD/sodipodi-0.dtd"
   xmlns:inkscape="http://www.inkscape.org/namespaces/inkscape"
   id="svg2"
   version="1.1"
   inkscape:version="0.91 r13725"
   xml:space="preserve"
   width="3120"
   height="448"
   viewBox="0 0 3119.9999 448"
   sodipodi:docname="Ko-fi_button.svg"><metadata
     id="metadata8"><rdf:RDF><cc:Work
         rdf:about=""><dc:format>image/svg+xml</dc:format><dc:type
           rdf:resource="http://purl.org/dc/dcmitype/StillImage" /><dc:title></dc:title></cc:Work></rdf:RDF></metadata><defs
     id="defs6"><clipPath
       clipPathUnits="userSpaceOnUse"
       id="clipPath16"><path
         d="m 0,751.724 1920.69,0 L 1920.69,0 0,0 0,751.724 Z"
         id="path18"
         inkscape:connector-curvature="0" /></clipPath></defs><sodipodi:namedview
     pagecolor="#ffffff"
     bordercolor="#666666"
     borderopacity="1"
     objecttolerance="10"
     gridtolerance="10"
     guidetolerance="10"
     inkscape:pageopacity="0"
     inkscape:pageshadow="2"
     inkscape:window-width="1793"
     inkscape:window-height="943"
     id="namedview4"
     showgrid="false"
     inkscape:zoom="0.269903"
     inkscape:cx="2059.7562"
     inkscape:cy="-423.55883"
     inkscape:window-x="0"
     inkscape:window-y="0"
     inkscape:window-maximized="0"
     inkscape:current-layer="layer1"
     fit-margin-top="0"
     fit-margin-left="0"
     fit-margin-right="0"
     fit-margin-bottom="0" /><g
     inkscape:groupmode="layer"
     id="layer1"
     inkscape:label="Ko-fi_Logo_White 1"
     transform="translate(25.344539,-17.343512)"><rect
       style="fill:#019cde;fill-opacity:1;fill-rule:evenodd;stroke:#019cde;stroke-width:62.16413498;stroke-linecap:round;stroke-linejoin:round;stroke-miterlimit:4;stroke-dasharray:none;stroke-opacity:1"
       id="rect4159"
       width="3057.8359"
       height="385.83588"
       x="5.7375283"
       y="48.425579" /><text
       xml:space="preserve"
       style="font-style:normal;font-variant:normal;font-weight:normal;font-stretch:normal;font-size:225px;line-height:125%;font-family:sans-serif;-inkscape-font-specification:sans-serif;letter-spacing:0px;word-spacing:0px;fill:#000000;fill-opacity:1;stroke:none;stroke-width:2;stroke-linecap:butt;stroke-linejoin:miter;stroke-miterlimit:4;stroke-dasharray:none;stroke-opacity:1"
       x="550.05731"
       y="326.82153"
       id="text4193"
       sodipodi:linespacing="125%"><tspan
         sodipodi:role="line"
         id="tspan4195"
         x="550.05731"
         y="326.82153"
         style="font-style:normal;font-variant:normal;font-weight:normal;font-stretch:normal;font-size:240px;font-family:sans-serif;-inkscape-font-specification:sans-serif;fill:#ffffff;fill-opacity:1;stroke:#000000;stroke-width:2;stroke-linecap:round;stroke-linejoin:round;stroke-miterlimit:4;stroke-dasharray:none;stroke-opacity:1">Support Me on Ko-fi</tspan></text>
</g><g
     id="g10"
     inkscape:groupmode="layer"
     inkscape:label="Ko-fi_Logo_White"
     transform="matrix(1.25,0,0,-1.25,25.344539,922.31149)"><g
       id="g4197"
       transform="matrix(0.5,0,0,0.5,26.096746,377.95214)"><g
         transform="translate(681.8276,429.2686)"
         id="g24"><path
           inkscape:connector-curvature="0"
           id="path26"
           style="fill:#ffffff;fill-opacity:1;fill-rule:nonzero;stroke:none"
           d="m 0,0 c -17.201,90.848 -108.038,102.137 -108.038,102.137 l -404.555,0 c -13.438,0 -18.586,-13.12 -18.636,-19.692 -0.007,-0.857 0.024,-4.286 0.024,-4.286 0,0 -0.634,-170.898 0.566,-262.175 3.646,-53.889 57.638,-53.87 57.638,-53.87 0,0 183.824,0.538 266.063,1.075 54.216,9.497 59.662,57.056 59.125,83.067 C -51.063,-159.119 17.199,-90.848 0,0 m -108.684,-88.694 c -20.633,-2.578 -37.396,-0.643 -37.396,-0.643 l 0,126.341 39.33,0 c 0,0 43.846,-12.247 43.846,-58.658 0,-42.544 -21.922,-59.304 -45.78,-67.04" /></g><g
         transform="translate(339.8134,262.2535)"
         id="g28"><path
           inkscape:connector-curvature="0"
           id="path30"
           style="fill:#ff5f5f;fill-opacity:1;fill-rule:nonzero;stroke:none"
           d="m 0,0 c 4.202,-2.115 6.886,0.513 6.886,0.513 0,0 61.481,56.115 89.179,88.431 24.635,28.91 26.241,77.63 -16.066,95.833 C 37.693,202.98 2.885,163.362 2.885,163.362 c -30.185,33.199 -75.87,31.518 -97.001,9.05 -21.129,-22.468 -13.751,-61.03 2.013,-82.492 C -77.306,69.773 -12.266,11.804 -2.408,2 -2.408,2 -1.69,1.248 0,0" /></g></g></g></svg>