<?xml version="1.0" encoding="UTF-8"?>
<svg width="208" height="36" version="1.1" viewBox="0 0 832 144" xmlns="http://www.w3.org/2000/svg">
  <rect x="8" y="8" width="816" height="128" rx="15" ry="15" fill="#019cde" />
  <text x="188" y="95.59369" fill="#ffffff" font-family="Arial,Helvetica,sans-serif" font-size="64px" font-weight="400" letter-spacing="1.25px" stroke="#fff" stroke-width="1">Support me on Ko-fi</text>
  <path d="m157 58c-3.53-18.6-22.1-20.9-22.1-20.9h-83c-2.75 0-3.8 2.68-3.8 4.03-0.0013 0.175 0.0047 0.873 0.0047 0.873s-0.13 35 0.116 53.7c0.747 11 11.8 11 11.8 11s37.7-0.11 54.7-0.22c11.1-1.94 12.2-11.7 12.1-17 19.8 1.1 33.7-12.9 30.3-31.5m-22.3 18.2c-4.2 0.53-7.67 0.132-7.67 0.132v-25.8h8.03s8.97 2.5 8.97 12c0 8.7-4.5 12.1-9.37 13.7" fill="#fff"/>
  <path d="m87.1 92c0.86 0.433 1.41-0.105 1.41-0.105s12.6-11.5 18.3-18.1c5.03-5.93 5.37-15.9-3.29-19.6-8.67-3.73-15.8 4.37-15.8 4.37-6.17-6.8-15.5-6.47-19.8-1.85-4.33 4.6-2.81 12.5 0.413 16.9 5.59 6.65 12.6 12.6 18.8 18.4" fill="#ff5f5f"/>
</svg>
