<?xml version="1.0" encoding="UTF-8"?>
<svg width="206" height="36" version="1.1" viewBox="0 0 824 144" xmlns="http://www.w3.org/2000/svg">
  <rect x="8" y="8" width="808" height="128" rx="15" ry="15" fill="#019cde"/>
  <text x="142.05363" y="94.3125" fill="#fff" stroke="#fff" stroke-width="1.5" stroke-linecap="round" stroke-linejoin="bevel" font-family="Arial,Helvetica,sans-serif" font-size="64px" font-weight="500" letter-spacing="5px">
    <tspan x="142.05363" y="94.3125">nate with</tspan>
    <tspan x="43.0625" y="94.033653">D</tspan>
  </text>
  <path d="m115 98c0.86 0.433 1.41-0.105 1.41-0.105s12.6-11.5 18.3-18.1c5.03-5.93 5.37-15.9-3.29-19.6-8.67-3.73-15.8 4.37-15.8 4.37-6.17-6.8-15.5-6.47-19.8-1.85-4.33 4.6-2.81 12.5 0.413 16.9 5.59 6.65 12.6 12.6 18.8 18.4" fill="#ff5f5f"/>
  <path d="m519 50.4c-7.3-2.73-10.8-3.08-22.4-3.18l-13 0.407-7.26 57.6c-0.156 0.933 0.544 1.87 1.48 2.02h12.6c1.48 0 2.72-1.09 2.96-2.48l0.156-0.622 2.33-14.7 0.156-0.778c0.233-1.48 1.48-2.48 2.96-2.48h1.87c12 0 21.3-4.82 24-18.9 0.521-6.15 0.419-11-2.48-14.3-1.09-1.01-2.18-1.87-3.5-2.57" fill="#acdff4" />
  <path d="m519 50.2c0.932-5.9 0-9.94-3.19-13.6-3.5-4.04-9.86-5.75-18-5.75h-23.8c-1.63 0-3.11 1.24-3.34 2.87l-9.86 62.4c-0.156 1.09 0.543 2.17 1.71 2.33h14.9l3.65-23.3-0.0777 0.699c0.233-1.63 1.63-2.87 3.34-2.87h6.91c13.7 0 24.3-5.51 27.4-21.6 0.156-0.311 0.233-0.777 0.311-1.24" fill="#506895" />
  <path d="m485 50.2c0.233-1.48 1.48-2.48 2.96-2.48h18.6c2.18 0 4.28 0.156 6.15 0.467 0.544 0.0778 1.09 0.156 1.56 0.311 0.7 0.156 1.48 0.389 2.18 0.622 0.855 0.311 1.71 0.622 2.57 1.09 0.933-5.91 0-9.96-3.19-13.6-3.5-4.04-9.87-5.76-18-5.76h-23.8c-1.63 0-3.11 1.24-3.35 2.87l-9.87 62.4c-0.156 1.09 0.544 2.18 1.71 2.33h14.9l3.65-23.3z" fill="#1f264f" />
  <path d="m576 63.8c-0.933 6.22-5.68 6.22-10.3 6.22h-2.65l1.87-11.6c0.0778-0.7 0.7-1.24 1.4-1.24h1.17c3.11 0 6.07 0 7.54 1.79 1.01 1.09 1.32 2.65 0.933 4.82m-1.94-16.2h-17.3c-1.17 0-2.18 0.855-2.41 2.02l-7 44.3c-0.156 0.778 0.389 1.56 1.17 1.63h8.48c1.17 0 2.18-0.855 2.33-2.02l1.87-12c0.156-1.17 1.17-2.02 2.33-2.02h5.44c11.3 0 17.9-5.52 19.7-16.4 0.778-4.74 0-8.55-2.18-11.1-2.33-2.8-6.69-4.35-12.4-4.35m40.2 32.1c-0.778 4.74-4.59 7.93-9.33 7.93-2.41 0-4.35-0.778-5.52-2.26-1.24-1.48-1.71-3.5-1.32-5.83 0.778-4.67 4.59-7.93 9.26-7.93 2.33 0 4.28 0.778 5.52 2.26 1.24 1.4 1.71 3.5 1.4 5.83m11.6-16.1h-8.24c-0.7 0-1.32 0.544-1.4 1.24l-0.389 2.33-0.544-0.855c-1.79-2.57-5.76-3.5-9.8-3.5-9.18 0-17 6.92-18.5 16.6-0.778 4.82 0.311 9.48 3.11 12.6 2.48 2.96 6.15 4.2 10.4 4.2 7.39 0 11.4-4.74 11.4-4.74l-0.389 2.33c-0.156 0.778 0.389 1.56 1.17 1.63h7.7c1.17 0 2.18-0.855 2.33-2.02l4.51-28.3c0.156-0.778-0.389-1.56-1.17-1.63h-0.311m44.1 0h-8.32c-0.778 0-1.56 0.389-2.02 1.09l-11.4 16.8-4.9-16.2c-0.311-1.01-1.24-1.71-2.33-1.71h-8.09c-0.778 0-1.48 0.622-1.48 1.48 0 0.156 0 0.311 0.0778 0.467l9.18 26.8-8.55 12.1c-0.7 0.933 0 2.26 1.17 2.26h8.32c0.778 0 1.56-0.389 1.94-1.01l27.6-39.9c0.622-1.01-0.0778-2.26-1.24-2.26" fill="#1f264f" />
  <path d="m699 63.6c-0.933 6.22-5.68 6.22-10.3 6.22h-2.65l1.87-11.6c0.0778-0.7 0.7-1.24 1.4-1.24h1.17c3.11 0 6.07 0 7.54 1.79 1.01 1.09 1.24 2.65 0.933 4.82m-2.02-16.2h-17.3c-1.17 0-2.18 0.855-2.33 2.02l-7 44.3c-0.156 0.778 0.389 1.56 1.17 1.63h9.09c0.855 0 1.56-0.622 1.63-1.4l1.94-12.5c0.156-1.17 1.17-2.02 2.41-2.02h5.44c11.3 0 17.9-5.52 19.7-16.4 0.778-4.74 0-8.55-2.18-11.1-2.41-2.87-6.76-4.43-12.6-4.43m40.2 32.1c-0.778 4.74-4.59 7.93-9.33 7.93-2.41 0-4.35-0.778-5.52-2.26-1.24-1.48-1.71-3.5-1.32-5.83 0.778-4.67 4.59-7.93 9.26-7.93 2.33 0 4.28 0.778 5.52 2.26 1.24 1.4 1.79 3.5 1.4 5.83m11.6-16.1h-8.24c-0.7 0-1.32 0.544-1.4 1.24l-0.389 2.33-0.544-0.855c-1.79-2.57-5.76-3.5-9.8-3.5-9.18 0-17 6.92-18.5 16.6-0.778 4.82 0.311 9.48 3.11 12.6 2.48 2.96 6.15 4.2 10.4 4.2 7.39 0 11.4-4.74 11.4-4.74l-0.389 2.33c-0.156 0.778 0.389 1.56 1.17 1.63h7.7c1.17 0 2.18-0.855 2.33-2.02l4.51-28.3c0.156-0.778-0.389-1.56-1.17-1.63h-0.311m9.8-14.8-7.07 45.1c-0.156 0.778 0.389 1.56 1.17 1.63h7.39c1.17 0 2.18-0.855 2.33-2.02l7-44.3c0.156-0.778-0.389-1.56-1.17-1.63h-8.24c-0.7-0.0778-1.32 0.467-1.4 1.17" fill="#fff" />
</svg>
