<?xml version="1.0" encoding="UTF-8"?>
<svg width="204" height="36" version="1.1" viewBox="0 0 816 144" xmlns="http://www.w3.org/2000/svg">
  <rect x="8" y="8" width="800" height="128" rx="15" ry="15" fill="#019cde" />
  <g fill="#fff">
    <path d="m55.2 78c0-11.4 5.93-18.6 15-18.6 5.14 0 9.24 2.71 11.1 6.71h0.174v-15.3c0-2.87 1.74-4.44 4.18-4.44s4.27 1.57 4.27 4.44v41.7c0 2.71-1.74 4.27-4.18 4.27s-4.27-1.48-4.27-4.27v-2.78h-0.174c-1.74 4.18-5.58 6.97-11.2 6.97-9.06 0-14.8-7.14-14.8-18.6zm26.3 0c0-7.06-3.49-11.7-8.89-11.7-5.49 0-8.89 4.53-8.89 11.7s3.4 11.7 8.89 11.7c5.4 0 8.89-4.53 8.89-11.7z" />
    <path d="m179 96.8c-2.87 0-4.53-1.74-4.53-4.96v-17.2c0-4.71-2.35-7.4-6.53-7.4-4.71 0-7.58 3.4-7.58 9.06v15.5c0 3.14-1.65 4.96-4.53 4.96s-4.53-1.74-4.53-4.96v-27.1c0-2.96 1.74-4.8 4.44-4.8s4.27 1.57 4.36 4.53v2.18h0.436c1.4-4.27 5.49-6.97 10.7-6.97 7.67 0 12 4.53 12 12.4v19.6c0.174 3.22-1.4 4.96-4.27 4.96z" />
    <path d="m202 96.8c-7.06 0-11.9-4.44-11.9-11 0-6.71 4.96-10.8 13.2-10.8h8.54v-2.96c0-3.66-2.27-5.58-6.36-5.58-2.71 0-4.71 1.04-6.71 2.78-1.04 0.784-2 1.22-3.4 1.22-2 0-3.22-1.31-3.22-3.14 0-2.09 1.48-4.27 4.62-5.84 2.27-1.22 5.31-1.83 9.24-1.83 9.49 0 14.8 4.53 14.8 12.4v19.8c0 3.05-1.57 4.8-4.36 4.8-2.35 0-3.92-1.31-4.18-3.66v-1.22h-0.436c-1.91 3.14-5.49 4.96-9.84 4.96zm2.96-6.45c3.92 0 6.89-2.62 6.89-6.09v-3.75h-6.97c-3.66 0-5.84 1.74-5.84 4.71 0 3.05 2.44 5.14 5.93 5.14z" />
    <path d="m232 67.2h-1.83c-2.44 0-3.83-1.31-3.83-3.49s1.4-3.49 3.83-3.49h2v-4.71c0-3.14 1.57-4.8 4.36-4.8s4.36 1.74 4.36 4.8v4.71h3.58c2.44 0 3.83 1.31 3.83 3.49s-1.4 3.49-3.83 3.49h-3.49v18.3c0 3.31 0.871 4.36 3.58 4.36 0.958 0 1.57-0.174 2.35-0.174 1.57 0 2.62 1.04 2.62 2.71 0 1.31-0.609 2.44-1.83 3.22s-3.14 1.22-5.58 1.22c-7.14 0-10.2-2.96-10.2-10.4v-19.1z" />
    <path d="m254 75.6c0-9.84 6.53-16.5 16.2-16.5 9.15 0 15.7 6.53 15.7 15.4 0 4-1.13 5.4-4.53 5.4h-18.3v1.57c0 5.05 3.22 8.27 8.54 8.27 2.78 0 4.8-0.697 6.36-2 1.74-1.31 2.35-1.83 3.75-1.83 1.83 0 3.14 1.31 3.14 3.31 0 1.57-0.958 3.14-2.71 4.36-2.35 2-6.53 3.22-11.1 3.22-10.5 0-17-6.18-17-16.5v-4.71zm23.3-1.4c0-4.96-2.71-8.18-6.97-8.18-4.44 0-7.23 3.31-7.23 8.11v0.0871z" />
    <path d="m313 66.7c-0.262-1.04-0.349-1.65-0.349-2.18 0-2.53 1.83-4.36 4.53-4.36 2.35 0 3.92 1.57 4.36 4.44l4.53 22.6h0.436l5.4-21.3c1.04-4.18 2.53-5.75 5.49-5.75s4.53 1.57 5.58 5.75l5.49 21.3h0.436l4.71-22.6c0.522-2.78 2.09-4.44 4.36-4.44 2.71 0 4.36 1.74 4.36 4.09 0 0.522-0.174 1.31-0.436 2.35l-6.27 23.1c-1.48 5.4-3.22 7.14-6.36 7.14-3.4 0-5.14-1.74-6.53-7.14l-5.22-19h-0.349l-5.05 19c-1.4 5.49-2.96 7.14-6.36 7.14-3.31 0-5.14-1.83-6.53-7.14z" />
    <path d="m371 46.5c2.96 0 5.14 2 5.14 4.71s-2.18 4.71-5.14 4.71c-2.87 0-5.05-2-5.05-4.71s2.18-4.71 5.05-4.71zm0 50.3c-2.78 0-4.44-1.74-4.44-4.96v-26.8c0-3.31 1.74-4.96 4.53-4.96s4.44 1.74 4.44 4.96v27c0 3.22-1.74 4.88-4.53 4.88z" />
    <path d="m387 67.2h-1.83c-2.44 0-3.83-1.31-3.83-3.49s1.4-3.49 3.83-3.49h2v-4.71c0-3.14 1.57-4.8 4.36-4.8s4.36 1.74 4.36 4.8v4.71h3.58c2.44 0 3.83 1.31 3.83 3.49s-1.4 3.49-3.83 3.49h-3.49v18.3c0 3.31 0.871 4.36 3.58 4.36 0.958 0 1.57-0.174 2.35-0.174 1.57 0 2.62 1.04 2.62 2.71 0 1.31-0.609 2.44-1.83 3.22s-3.14 1.22-5.58 1.22c-7.14 0-10.2-2.96-10.2-10.4v-19.1z" />
    <path d="m436 96.7c-2.87 0-4.53-1.74-4.53-4.96v-17c0-4.71-2.44-7.4-6.62-7.4-4.62 0-7.67 3.49-7.67 9.06v15.5c0 3.14-1.65 4.96-4.53 4.96s-4.44-1.74-4.44-4.96v-39.6c0-3.14 1.57-4.96 4.53-4.96 2.87 0 4.44 1.83 4.44 4.96v14.4h0.436c1.22-4.09 5.66-6.97 10.8-6.97 7.49 0 12 4.71 12 12.5v19.5c0.0871 3.22-1.57 4.96-4.44 4.96z" />
  </g>
  <path d="m119 98c0.86 0.433 1.41-0.105 1.41-0.105s12.6-11.5 18.3-18.1c5.03-5.93 5.37-15.9-3.29-19.6-8.67-3.73-15.8 4.37-15.8 4.37-6.17-6.8-15.5-6.47-19.8-1.85-4.33 4.6-2.81 12.5 0.413 16.9 5.59 6.65 12.6 12.6 18.8 18.4" fill="#ff5f5f"/>
  <path d="m526 53.1c-6.76-2.53-10-2.85-20.7-2.94l-12 0.377-6.72 53.3c-0.144 0.864 0.504 1.73 1.37 1.87h11.7c1.37 0 2.52-1.01 2.74-2.3l0.144-0.576 2.16-13.6 0.144-0.72c0.216-1.37 1.37-2.3 2.74-2.3h1.73c11.1 0 19.7-4.46 22.2-17.5 0.482-5.69 0.388-10.2-2.3-13.2-1.01-0.936-2.02-1.73-3.24-2.38" fill="#acdff4"/>
  <path d="m526 52.9c0.863-5.46 0-9.2-2.95-12.6-3.24-3.74-9.13-5.32-16.7-5.32h-22c-1.51 0-2.88 1.15-3.09 2.66l-9.13 57.8c-0.144 1.01 0.503 2.01 1.58 2.16h13.8l3.38-21.6-0.0719 0.647c0.216-1.51 1.51-2.66 3.09-2.66h6.4c12.7 0 22.5-5.1 25.4-20 0.144-0.288 0.216-0.719 0.288-1.15" fill="#506895"/>
  <path d="m495 52.9c0.216-1.37 1.37-2.3 2.74-2.3h17.2c2.02 0 3.96 0.144 5.69 0.432 0.504 0.072 1.01 0.144 1.44 0.288 0.648 0.144 1.37 0.36 2.02 0.576 0.792 0.288 1.58 0.576 2.38 1.01 0.864-5.47 0-9.22-2.95-12.6-3.24-3.74-9.14-5.33-16.7-5.33h-22c-1.51 0-2.88 1.15-3.1 2.66l-9.14 57.8c-0.144 1.01 0.504 2.02 1.58 2.16h13.8l3.38-21.6z" fill="#1f264f"/>
  <path d="m579 67.8c-0.864 5.76-5.26 5.76-9.5 5.76h-2.45l1.73-10.7c0.072-0.648 0.648-1.15 1.3-1.15h1.08c2.88 0 5.62 0 6.98 1.66 0.936 1.01 1.22 2.45 0.864 4.46m-1.8-15h-16c-1.08 0-2.02 0.792-2.23 1.87l-6.48 41c-0.144 0.72 0.36 1.44 1.08 1.51h7.85c1.08 0 2.02-0.792 2.16-1.87l1.73-11.1c0.144-1.08 1.08-1.87 2.16-1.87h5.04c10.5 0 16.6-5.11 18.2-15.2 0.72-4.39 0-7.92-2.02-10.3-2.16-2.59-6.19-4.03-11.5-4.03m37.2 29.7c-0.72 4.39-4.25 7.34-8.64 7.34-2.23 0-4.03-0.72-5.11-2.09-1.15-1.37-1.58-3.24-1.22-5.4 0.72-4.32 4.25-7.34 8.57-7.34 2.16 0 3.96 0.72 5.11 2.09 1.15 1.3 1.58 3.24 1.3 5.4m10.7-14.9h-7.63c-0.648 0-1.22 0.504-1.3 1.15l-0.36 2.16-0.504-0.792c-1.66-2.38-5.33-3.24-9.07-3.24-8.5 0-15.7 6.41-17.1 15.4-0.72 4.46 0.288 8.78 2.88 11.7 2.3 2.74 5.69 3.89 9.65 3.89 6.84 0 10.6-4.39 10.6-4.39l-0.36 2.16c-0.144 0.72 0.36 1.44 1.08 1.51h7.13c1.08 0 2.02-0.792 2.16-1.87l4.18-26.2c0.144-0.72-0.36-1.44-1.08-1.51h-0.288m40.8 0h-7.7c-0.72 0-1.44 0.36-1.87 1.01l-10.6 15.6-4.54-15c-0.288-0.936-1.15-1.58-2.16-1.58h-7.49c-0.72 0-1.37 0.576-1.37 1.37 0 0.144 0 0.288 0.072 0.432l8.5 24.8-7.92 11.2c-0.648 0.864 0 2.09 1.08 2.09h7.7c0.72 0 1.44-0.36 1.8-0.936l25.6-36.9c0.576-0.936-0.072-2.09-1.15-2.09" fill="#1f264f"/>
  <path d="m693 68c-0.864 5.76-5.26 5.76-9.5 5.76h-2.45l1.73-10.7c0.072-0.648 0.648-1.15 1.3-1.15h1.08c2.88 0 5.62 0 6.98 1.66 0.936 1.01 1.15 2.45 0.864 4.46m-1.87-15h-16c-1.08 0-2.02 0.792-2.16 1.87l-6.48 41c-0.144 0.72 0.36 1.44 1.08 1.51h8.42c0.792 0 1.44-0.576 1.51-1.3l1.8-11.6c0.144-1.08 1.08-1.87 2.23-1.87h5.04c10.5 0 16.6-5.11 18.2-15.2 0.72-4.39 0-7.92-2.02-10.3-2.23-2.66-6.26-4.1-11.7-4.1m37.2 29.7c-0.72 4.39-4.25 7.34-8.64 7.34-2.23 0-4.03-0.72-5.11-2.09-1.15-1.37-1.58-3.24-1.22-5.4 0.72-4.32 4.25-7.34 8.57-7.34 2.16 0 3.96 0.72 5.11 2.09 1.15 1.3 1.66 3.24 1.3 5.4m10.7-14.9h-7.63c-0.648 0-1.22 0.504-1.3 1.15l-0.36 2.16-0.504-0.792c-1.66-2.38-5.33-3.24-9.07-3.24-8.5 0-15.7 6.41-17.1 15.4-0.72 4.46 0.288 8.78 2.88 11.7 2.3 2.74 5.69 3.89 9.65 3.89 6.84 0 10.6-4.39 10.6-4.39l-0.36 2.16c-0.144 0.72 0.36 1.44 1.08 1.51h7.13c1.08 0 2.02-0.792 2.16-1.87l4.18-26.2c0.144-0.72-0.36-1.44-1.08-1.51h-0.288m9.07-13.7-6.55 41.8c-0.144 0.72 0.36 1.44 1.08 1.51h6.84c1.08 0 2.02-0.792 2.16-1.87l6.48-41c0.144-0.72-0.36-1.44-1.08-1.51h-7.63c-0.648-0.072-1.22 0.432-1.3 1.08" fill="#fff"/>
</svg>
